<svg t="1735489312207" class="icon" viewBox="0 0 1024 1024" version="1.1" xmlns="http://www.w3.org/2000/svg" p-id="5295" width="200" height="200"><path d="M510.404984 510.41296m-510.404984 0a510.404984 510.404984 0 1 0 1020.809969 0 510.404984 510.404984 0 1 0-1020.809969 0Z" fill="#C2D5D8" p-id="5296"></path><path d="M749.657321 510.397009H271.152648c-5.60648 0-10.965732 2.376573-14.737944 6.539564C215.701931 561.66081 191.401869 622.247477 191.401869 678.93433v229.785919c87.390903 70.077009 198.260436 112.10567 319.003115 112.10567 120.750654 0 231.612212-42.02866 319.003116-112.10567V678.91838c0-56.639003-24.300062-117.193769-64.980935-161.981807a20.001495 20.001495 0 0 0-14.769844-6.539564z" fill="#198058" p-id="5297"></path><path d="M735.700935 587.252835V554.586916c0-77.980312-103.181558-24.236262-225.295951-24.236262s-225.29595-53.74405-225.29595 24.236262l0.031901 32.649969c-18.661682 8.445607-29.364237 24.858318-29.364237 54.76486l0.191402 313.787414 0.406729 0.685857 0.988909 0.829408A513.459439 513.459439 0 0 0 510.404984 1024c88.61109 0 176.384798-23.207477 254.229533-67.365483l0.398754-0.215327V642.001745c0-29.890592-10.686604-46.311277-29.332336-54.74891z" fill="#109963" p-id="5298"></path><path d="M223.302181 845.366231a7.975078 7.975078 0 0 1-7.975078-7.975078V678.93433c0-48.943053 20.631526-101.961371 55.187539-141.85271a7.975078 7.975078 0 1 1 12.058318 10.447352C250.457321 584.589159 231.277259 633.715639 231.277259 678.93433v158.456823a7.975078 7.975078 0 0 1-7.975078 7.975078z" fill="#1E9969" p-id="5299"></path><path d="M749.657321 510.397009h-23.925234c5.62243 0 10.981682 2.376573 14.769844 6.555514C781.190779 561.716636 805.482866 622.279377 805.482866 678.93433v247.80162a538.899938 538.899938 0 0 0 23.925234-18.023676V678.91838c0-56.639003-24.300062-117.193769-64.980935-161.981807a20.001495 20.001495 0 0 0-14.769844-6.539564z" fill="#146646" p-id="5300"></path><path d="M767.489595 421.738069C746.570966 379.91676 652.624548 291.082368 510.404984 291.082368S274.231028 379.91676 253.320374 421.738069C244.75514 436.731215 231.277259 468.43215 231.277259 490.459315c0 97.287975 127.816573 179.439252 279.127725 179.439252s279.127726-82.167227 279.127726-179.439252c0-22.027165-13.469907-53.7281-22.043115-68.721246z" fill="#198058" p-id="5301"></path><path d="M510.404984 669.914517c94.504673 0 179.838006-32.059813 230.591402-79.830529a54.76486 54.76486 0 0 0-5.295451-2.831153V554.586916c0-77.980312-103.181558-24.236262-225.295951-24.236262s-225.29595-53.74405-225.29595 24.236262l0.031901 32.649969c-1.866168 0.837383-3.61271 1.834268-5.335328 2.847103 50.753396 47.770717 136.094704 79.83053 230.599377 79.830529z" fill="#13B374" p-id="5302"></path><path d="M767.489595 421.738069C746.570966 379.91676 652.624548 291.082368 510.404984 291.082368c-4.035389 0-8.006978 0.095701-11.962616 0.231277 135.512523 4.785047 224.801495 89.775452 245.121993 130.416448C752.13757 436.731215 765.607477 468.43215 765.607477 490.459315c0 94.70405-121.133458 175.060935-267.165109 179.24785 3.971589 0.127601 7.951153 0.183427 11.962616 0.183427 151.311153 0 279.127726-82.167227 279.127726-179.439252 0-22.01919-13.469907-53.720125-22.043115-68.713271z" fill="#146646" p-id="5303"></path><path d="M740.996386 590.083988a54.76486 54.76486 0 0 0-5.295451-2.831153v-17.449471c-44.716262 56.543302-134.834642 96.976947-237.258567 99.903801 3.971589 0.127601 7.951153 0.183427 11.962616 0.183427 94.504673 0.023925 179.838006-32.035888 230.591402-79.806604z" fill="#12A66B" p-id="5304"></path><path d="M330.965732 430.646231c-43.982555 0-79.750779-35.768224-79.750779-79.750779s35.768224-79.750779 79.750779-79.750779 79.750779 35.768224 79.750779 79.750779-35.768224 79.750779-79.750779 79.750779z" fill="#FFC066" p-id="5305"></path><path d="M297.095576 329.968847l-16.037881-18.709532a63.298193 63.298193 0 0 0-13.892586 39.636137c0 1.57109 0.127601 3.11028 0.231277 4.64947h24.148536c-0.167477-1.53919-0.462555-3.054455-0.462554-4.64947a39.341059 39.341059 0 0 1 6.013208-20.926605zM312.942056 315.533956A40.513396 40.513396 0 0 1 326.978193 311.426791v-24.116635a63.306168 63.306168 0 0 0-29.914517 9.697694l15.87838 18.526106z" fill="#FFD599" p-id="5306"></path><path d="M330.965732 322.105421c-26.804237 0-56.942056 11.085358-66.456324 28.790031 9.514268 17.720623 39.652087 28.790031 66.456324 28.790031 26.365607 0 55.602243-11.74729 66.456324-28.790031-10.854081-17.042741-40.090717-28.790031-66.456324-28.790031z" fill="#242424" p-id="5307"></path><path d="M267.348536 346.63676a63.146667 63.146667 0 0 0-0.183427 4.266667c0 1.459439 0.119626 2.879003 0.215327 4.306542l0.263178 0.342928h23.901308c-0.167477-1.53919-0.462555-3.054455-0.462554-4.64947 0-7.69595 2.201121-14.85757 6.005233-20.926605l-1.507289-1.770467c-11.922741 4.234766-22.154766 10.543053-28.231776 18.430405z" fill="#333333" p-id="5308"></path><path d="M330.965732 430.646231c-43.982555 0-79.750779-35.768224-79.750779-79.750779s35.768224-79.750779 79.750779-79.750779 79.750779 35.768224 79.750779 79.750779-35.768224 79.750779-79.750779 79.750779z" fill="#F5F5F5" p-id="5309"></path><path d="M330.965732 322.105421c-26.804237 0-56.942056 11.085358-66.456324 28.790031 9.514268 17.720623 39.652087 28.790031 66.456324 28.790031 26.365607 0 55.602243-11.74729 66.456324-28.790031-10.854081-17.042741-40.090717-28.790031-66.456324-28.790031z" fill="#242424" p-id="5310"></path><path d="M267.348536 346.63676a63.146667 63.146667 0 0 0-0.183427 4.266667c0 1.459439 0.119626 2.879003 0.215327 4.306542l0.263178 0.342928h23.901308c-0.167477-1.53919-0.462555-3.054455-0.462554-4.64947 0-7.69595 2.201121-14.85757 6.005233-20.926605l-1.507289-1.770467c-11.922741 4.234766-22.154766 10.543053-28.231776 18.430405z" fill="#333333" p-id="5311"></path><path d="M689.844237 430.646231c-43.99053 0-79.750779-35.768224-79.750779-79.750779s35.760249-79.750779 79.750779-79.750779 79.750779 35.768224 79.750779 79.750779-35.760249 79.750779-79.750779 79.750779z" fill="#F5F5F5" p-id="5312"></path><path d="M689.844237 322.105421c-26.804237 0-56.950031 11.085358-66.456324 28.790031 9.506293 17.720623 39.652087 28.790031 66.456324 28.790031 26.373583 0 55.610218-11.74729 66.456324-28.790031-10.846106-17.042741-40.082741-28.790031-66.456324-28.790031z" fill="#242424" p-id="5313"></path><path d="M626.22704 346.63676a63.146667 63.146667 0 0 0-0.183426 4.266667c0 1.459439 0.127601 2.879003 0.215327 4.306542l0.263177 0.342928h23.893334c-0.167477-1.53919-0.462555-3.054455-0.462555-4.64947 0-7.69595 2.201121-14.85757 6.005234-20.926605l-1.50729-1.770467c-11.914766 4.234766-22.146791 10.543053-28.223801 18.430405z" fill="#333333" p-id="5314"></path><path d="M716.034393 508.618567c-22.122866-8.102679-55.466667-3.09433-95.772711 3.04648-33.024798 5.024299-70.419938 10.71053-109.856698 10.710529-39.444735 0-76.855826-5.686231-109.856697-10.710529-40.306044-6.14081-73.633894-11.133209-95.772711-3.04648-2.432399 0.877259-7.201495 5.893583-5.016324 11.340561 0.97296 2.416449 7.313146 4.904673 9.275016 4.09919 17.959875-7.400872 51.255826-2.384548 89.11352 3.381433 33.567103 5.112025 71.608224 10.885981 112.257196 10.885981 40.656947 0 78.690093-5.797882 112.257197-10.885981 37.84972-5.765981 71.153645-10.782305 89.11352-3.381433 1.961869 0.829408 8.302056-1.682741 9.275016-4.09919 2.193146-5.446978-2.583925-10.455327-5.016324-11.340561z" fill="#242424" p-id="5315"></path></svg>